<svg width="30" height="30" viewBox="0 0 30 30" fill="none" xmlns="http://www.w3.org/2000/svg">
<path d="M28.5 0C29.2693 0 29.9033 0.723826 29.9899 1.65634L30 1.875V14.0625C30 17.5661 27.8036 20.4284 25.0381 20.6153L24.75 20.625H5.1225L10.0607 26.7992C10.6014 27.4751 10.643 28.5386 10.1854 29.2742L10.0607 29.4508C9.51993 30.1267 8.66909 30.1787 8.08065 29.6068L7.93934 29.4508L0.43934 20.0758C0.386249 20.0095 0.337969 19.9394 0.294502 19.8662L0.187007 19.6576L0.106838 19.4463L0.0537676 19.2487L0.0165267 19.0284L0.00596631 18.9184L0 18.75L0.00418174 18.6089L0.0303601 18.3736L0.0746073 18.1647L0.14051 17.9565L0.218993 17.7737L0.314557 17.6008L0.43934 17.4242L7.93934 8.04918C8.52513 7.31694 9.47487 7.31694 10.0607 8.04918C10.6014 8.72508 10.643 9.78864 10.1854 10.5242L10.0607 10.7008L5.1225 16.875H24.75C25.9195 16.875 26.8807 15.7596 26.9897 14.3334L27 14.0625V1.875C27 0.839466 27.6716 0 28.5 0Z" fill="#212121"/>
</svg>
