<svg width="30" height="30" viewBox="0 0 30 30" fill="none" xmlns="http://www.w3.org/2000/svg">
<path fill-rule="evenodd" clip-rule="evenodd" d="M0.627623 0.627623C1.46447 -0.209207 2.82125 -0.209207 3.6581 0.627623L15 11.9696L26.342 0.627623C27.1788 -0.209207 28.5356 -0.209207 29.3724 0.627623C30.2092 1.46447 30.2092 2.82125 29.3724 3.6581L18.0305 15L29.3724 26.342C30.2092 27.1788 30.2092 28.5356 29.3724 29.3724C28.5356 30.2092 27.1788 30.2092 26.342 29.3724L15 18.0305L3.6581 29.3724C2.82125 30.2092 1.46447 30.2092 0.627623 29.3724C-0.209207 28.5356 -0.209207 27.1788 0.627623 26.342L11.9696 15L0.627623 3.6581C-0.209207 2.82125 -0.209207 1.46447 0.627623 0.627623Z" fill="#0D0D0F"/>
</svg>
